<?xml version="1.0" encoding="iso-8859-1"?>
<!-- Uploaded to: SVG Repo, www.svgrepo.com, Generator: SVG Repo Mixer Tools -->
<svg fill="#000000" height="800px" width="800px" version="1.1" id="Layer_1" xmlns="http://www.w3.org/2000/svg" xmlns:xlink="http://www.w3.org/1999/xlink" 
	 viewBox="0 0 496 496" xml:space="preserve">
<g>
	<g>
		<g>
			<path d="M480,305.472V192c0-16.36-9.896-30.416-24-36.608V152h16c13.232,0,24-10.768,24-24s-10.768-24-24-24h-32v16h-2.088
				l-5.12-97.264C432.12,9.984,421.592,0,408.824,0H87.176C74.4,0,63.88,9.984,63.208,22.736L58.088,120H56v-16H24
				c-13.232,0-24,10.768-24,24s10.768,24,24,24h16v3.392C25.896,161.584,16,175.64,16,192v113.472C6.712,308.784,0,317.584,0,328v48
				c0,13.232,10.768,24,24,24h8v72c0,13.232,10.768,24,24,24h32c13.232,0,24-10.768,24-24v-72h272v72c0,13.232,10.768,24,24,24h32
				c13.232,0,24-10.768,24-24v-72h8c13.232,0,24-10.768,24-24v-48C496,317.584,489.288,308.784,480,305.472z M456,120h16
				c4.416,0,8,3.584,8,8s-3.584,8-8,8h-16V120z M440,136v8v8h-0.408l-0.84-16H440z M79.192,23.576C79.416,19.328,82.92,16,87.176,16
				h321.64c4.256,0,7.768,3.328,7.984,7.576L423.568,152h-16.08l-8-120H96.512l-8,120h-16.08L79.192,23.576z M391.448,152H104.552
				l6.928-104h273.032L391.448,152z M56,144v-8h1.248l-0.84,16H56V144z M24,136c-4.416,0-8-3.584-8-8s3.584-8,8-8h16v16H24z M32,208
				h32.76l2.4,24H32V208z M32,248h36.76l2.4,24H32V248z M32,288h56.84l-9.6-96H32c0-13.232,10.768-24,24-24h384
				c13.232,0,24,10.768,24,24h-47.24l-9.6,96H464v16h-68.944l-8,16H108.944l-8-16H32V288z M428.84,232l2.4-24H464v24H428.84z
				 M464,248v24h-39.16l2.4-24H464z M96,472c0,4.416-3.584,8-8,8h-8v-16H64v16h-8c-4.416,0-8-3.584-8-8v-72h16v48h16v-48h16V472z
				 M448,472c0,4.416-3.584,8-8,8h-8v-16h-16v16h-8c-4.416,0-8-3.584-8-8v-72h16v48h16v-48h16V472z M480,376c0,4.416-3.584,8-8,8H24
				c-4.416,0-8-3.584-8-8v-48c0-4.416,3.584-8,8-8h67.056l8,16h297.888l8-16H472c4.416,0,8,3.584,8,8V376z"/>
			<path d="M391.24,288l9.6-96H95.16l9.6,96H391.24z M376.752,272H119.24l-2.4-24h262.312L376.752,272z M383.16,208l-2.4,24H115.24
				l-2.4-24H383.16z"/>
		</g>
	</g>
</g>
</svg>